<svg width="33" height="38" viewBox="0 0 33 38" fill="none" xmlns="http://www.w3.org/2000/svg">
<path d="M14.6667 23.5238V38H0C0 34.1607 1.54523 30.4786 4.29577 27.7638C7.0463 25.049 10.7768 23.5238 14.6667 23.5238ZM14.6667 21.7143C8.58917 21.7143 3.66667 16.8557 3.66667 10.8571C3.66667 4.85857 8.58917 0 14.6667 0C20.7442 0 25.6667 4.85857 25.6667 10.8571C25.6667 16.8557 20.7442 21.7143 14.6667 21.7143ZM31.1667 28.9524H33V38H18.3333V28.9524H20.1667V27.1429C20.1667 25.7031 20.7461 24.3223 21.7776 23.3043C22.809 22.2862 24.208 21.7143 25.6667 21.7143C27.1254 21.7143 28.5243 22.2862 29.5558 23.3043C30.5872 24.3223 31.1667 25.7031 31.1667 27.1429V28.9524ZM27.5 28.9524V27.1429C27.5 26.6629 27.3068 26.2027 26.963 25.8633C26.6192 25.524 26.1529 25.3333 25.6667 25.3333C25.1804 25.3333 24.7141 25.524 24.3703 25.8633C24.0265 26.2027 23.8333 26.6629 23.8333 27.1429V28.9524H27.5Z" fill="#949494"/>
</svg>
