<svg width="380" height="368" viewBox="0 0 380 368" fill="none" xmlns="http://www.w3.org/2000/svg">
<path opacity="0.3" fill-rule="evenodd" clip-rule="evenodd" d="M222.396 724.827C88.6518 663.691 -2.79873 527.212 0.946875 370.891C5.96085 161.635 179.661 -3.93538 388.917 1.07859C461.944 2.82839 529.651 25.1226 586.643 62.3027C603.834 70.1607 620.326 79.2635 636.006 89.493C653.197 97.351 669.688 106.454 685.369 116.683C819.113 177.819 910.564 314.298 906.818 470.619C901.804 679.875 728.104 845.446 518.848 840.432C445.821 838.682 378.114 816.388 321.121 779.208C303.931 771.35 287.439 762.247 271.759 752.017C254.568 744.159 238.076 735.057 222.396 724.827ZM631.004 98.8107C710.489 169.885 759.484 274.05 756.73 389.001C751.742 597.152 578.959 761.849 370.807 756.862C338.233 756.081 306.723 751.191 276.761 742.7C197.276 671.625 148.281 567.461 151.035 452.51C156.022 244.358 328.806 79.6612 536.957 84.6488C569.532 85.4293 601.042 90.3191 631.004 98.8107ZM627.577 95.7839C598.648 87.9264 568.316 83.3996 537.005 82.6493C327.749 77.6353 154.049 243.206 149.035 452.462C146.302 566.541 194.267 670.052 272.37 741.426C264.653 739.137 257.042 736.608 249.544 733.848C157.134 663.064 98.6702 550.598 101.672 425.32C106.66 217.168 279.443 52.471 487.595 57.4585C530.197 58.4793 570.979 66.5289 608.858 80.4721C615.264 85.3789 621.507 90.4861 627.577 95.7839ZM635.395 100.084C713.498 171.458 761.463 274.97 758.729 389.048C753.715 598.304 580.015 763.875 370.76 758.861C339.449 758.111 309.117 753.584 280.188 745.727C286.258 751.024 292.501 756.132 298.907 761.038C336.786 774.981 377.568 783.031 420.17 784.052C628.322 789.039 801.105 624.342 806.093 416.191C809.095 290.913 750.631 178.446 658.221 107.662C650.723 104.902 643.112 102.374 635.395 100.084ZM275.773 744.499C268.743 742.497 261.798 740.298 254.944 737.908C260.745 742.189 266.674 746.309 272.725 750.26C279.246 753.237 285.869 756.035 292.586 758.646C286.843 754.091 281.237 749.372 275.773 744.499ZM243.223 731.456C153.282 660.102 96.7105 548.891 99.6726 425.272C104.687 216.016 278.387 50.4451 487.642 55.4591C528.196 56.4308 567.109 63.7381 603.458 76.4121C597.657 72.1308 591.728 68.0114 585.677 64.0607C540.662 43.5053 490.834 31.5287 438.232 30.2683C230.08 25.2807 57.2967 189.978 52.3091 398.129C49.0635 533.586 117.677 654.064 223.362 723.069C229.883 726.047 236.506 728.845 243.223 731.456ZM234.702 730.19C239.28 732.088 243.903 733.899 248.57 735.621C252.529 738.648 256.549 741.6 260.63 744.473C251.781 740.043 243.133 735.276 234.702 730.19ZM211.267 717.283C84.77 653.96 -0.666798 521.73 2.9463 370.939C7.93382 162.788 180.717 -1.9095 388.869 3.07801C456.778 4.70518 520.062 24.1921 574.337 56.9403C532.334 39.5224 486.465 29.4234 438.28 28.2688C229.024 23.2549 55.3237 188.826 50.3097 398.081C47.1609 529.497 111.29 646.888 211.267 717.283ZM597.772 69.8473C601.853 72.7203 605.873 75.6717 609.832 78.6992C614.499 80.4213 619.122 82.2325 623.7 84.1306C615.269 79.0438 606.621 74.277 597.772 69.8473ZM615.179 82.864C621.896 85.4753 628.519 88.2731 635.04 91.251C641.091 95.2017 647.02 99.3211 652.821 103.602C645.967 101.213 639.022 99.0136 631.992 97.0119C626.528 92.1382 620.922 87.4199 615.179 82.864ZM808.092 416.239C811.054 292.619 754.483 181.409 664.542 110.054C671.259 112.665 677.881 115.463 684.403 118.441C790.088 187.446 858.701 307.925 855.456 443.381C850.468 651.533 677.685 816.23 469.533 811.242C416.93 809.982 367.103 798.005 322.088 777.45C316.037 773.499 310.108 769.38 304.307 765.098C340.655 777.772 379.568 785.08 420.122 786.051C629.378 791.065 803.078 625.495 808.092 416.239ZM284.065 757.38C288.642 759.278 293.266 761.089 297.933 762.811C301.892 765.839 305.912 768.79 309.993 771.663C301.144 767.234 292.496 762.467 284.065 757.38ZM673.062 111.321C664.632 106.234 655.984 101.467 647.135 97.0375C651.216 99.9106 655.236 102.862 659.195 105.889C663.862 107.612 668.485 109.423 673.062 111.321ZM696.498 124.228C796.474 194.622 860.604 312.014 857.455 443.429C852.441 652.685 678.741 818.256 469.485 813.242C421.3 812.087 375.431 801.988 333.428 784.57C387.703 817.318 450.987 836.805 518.896 838.432C727.048 843.42 899.831 678.723 904.818 470.571C908.432 319.78 822.995 187.55 696.498 124.228Z" fill="#D7282F"/>
</svg>
