<svg width="219" height="245" viewBox="0 0 219 245" fill="none" xmlns="http://www.w3.org/2000/svg">
<path opacity="0.2" d="M-95.2529 188.303L25.1279 66.9164L-131.987 132.909L-133.959 128.214L23.2944 62.1626H-147V57.0698H23.2848L-134.207 -8.36613L-132.253 -13.0692L25.2188 52.3584L-95.2529 -69.1195L-91.6368 -72.7057L28.6642 48.6001L-36.7623 -109.818L-32.0551 -111.762L33.4353 46.8107V-125H38.5281V46.6573L103.314 -112.006L108.029 -110.08L43.1963 48.697L163.593 -72.7057L167.21 -69.1195L46.8104 52.2852L203.965 -13.7241L205.937 -9.02861L48.5705 57.0698H219V62.1626H48.8157L206.176 127.544L204.222 132.247L46.7203 66.807L167.21 188.303L163.593 191.889L43.2252 70.5152L108.679 229L103.972 230.945L38.5281 72.4837V244.18H33.4353V72.6021L-31.3415 231.242L-36.0564 229.317L28.8247 70.4211L-91.6368 191.889L-95.2529 188.303Z" fill="#ECB8BA"/>
</svg>
