<svg width="62" height="62" viewBox="0 0 62 62" fill="none" xmlns="http://www.w3.org/2000/svg">
<path fill-rule="evenodd" clip-rule="evenodd" d="M30.8616 61.96C47.8201 61.96 61.5675 48.201 61.5675 31.2283C61.5675 14.2557 47.8201 0.496689 30.8616 0.496689C13.9032 0.496689 0.155762 14.2557 0.155762 31.2283C0.155762 48.201 13.9032 61.96 30.8616 61.96ZM35.601 24.2409C38.2184 21.6211 38.2184 17.3739 35.601 14.7541C32.9835 12.1344 28.7398 12.1344 26.1223 14.7541C23.5049 17.3739 23.5049 21.6211 26.1223 24.2409L30.8616 28.9841L35.601 24.2409ZM37.8433 35.9718C40.4609 38.5915 44.7046 38.5915 47.3221 35.9718C49.9395 33.352 49.9395 29.1048 47.3221 26.485C44.7046 23.8655 40.4609 23.8655 37.8433 26.485L33.104 31.2285L37.8433 35.9718ZM35.601 47.7027C38.2184 45.083 38.2184 40.8357 35.601 38.216L30.8616 33.4727L26.1223 38.216C23.5049 40.8357 23.5049 45.083 26.1223 47.7027C28.7398 50.3224 32.9835 50.3224 35.601 47.7027ZM14.4012 35.9718C11.7838 33.352 11.7838 29.1048 14.4012 26.485C17.0188 23.8655 21.2625 23.8655 23.88 26.485L28.6193 31.2285L23.88 35.9718C21.2625 38.5915 17.0188 38.5915 14.4012 35.9718Z" fill="#D7282F"/>
</svg>
